<?xml version="1.0" standalone="no"?><!DOCTYPE svg PUBLIC "-//W3C//DTD SVG 1.1//EN" "http://www.w3.org/Graphics/SVG/1.1/DTD/svg11.dtd"><svg t="1716637392189" class="icon" viewBox="0 0 1024 1024" version="1.1" xmlns="http://www.w3.org/2000/svg" p-id="3385" xmlns:xlink="http://www.w3.org/1999/xlink" width="200" height="200"><path d="M657.9 301.3s32.8-51.5 13.7-64.7c-19.1-13.2-53.6 5.1-60.9 38.4 0 0-18.6-32.9-45.8-20.8-17.8 7.9 3.6 44.5 3.6 44.5-67.5 12.5-130.2 54.1-172.3 109.2-14.3 18.7-71.9 97.6-48.6 189.7 26.6 105 143.6 167.9 246.1 173.6 101.2 5.5 224.7-42.9 262.9-143.5 43.5-115.2-34.5-272.3-198.7-326.4z" fill="#FEFFE3" p-id="3386"></path><path d="M609.1 781.6c-5.4 0-10.8-0.1-16.1-0.4-54.1-3-111.1-21.6-156.4-51.1-51.6-33.6-85.8-78.6-98.8-130-10.4-41.2-6.9-84.4 10.6-128.5 9.6-24.3 23-47.8 39.8-69.7 42.4-55.5 102.1-95.1 165.5-110.2-4.1-9.7-8-23-4.7-33.4 1.9-6 6-10.5 11.7-13.1 19.1-8.5 35.6-0.4 46.7 10.1 7.2-13.4 18.7-24 32.3-29.4 13.6-5.4 27.2-4.4 37.4 2.7 12.3 8.5 13.6 25.1 3.9 49.2-2.7 6.8-5.9 13.1-8.6 18.2 40 14.7 75.9 35.7 106.9 62.7 31.4 27.4 57 60.8 74.1 96.6 13.9 29.1 22.1 59.1 24.3 89.1 2.3 30.7-1.7 59.9-12 87-18.6 49.2-57.6 89.6-112.7 117-43.2 21.3-94.8 33.2-143.9 33.2z m-32.4-519.9c-2.5 0-5.1 0.5-7.8 1.7-0.5 0.2-0.6 0.3-0.8 0.9-1.9 5.8 4 20.8 9 29.3 1.6 2.8 1.8 6.3 0.5 9.2-1.4 3-4.1 5.1-7.3 5.7-63.5 11.8-124 50.2-166.3 105.5-20.9 27.4-67.4 99.9-46.9 181.2 25.6 100.8 141.2 160.8 237 166 4.8 0.3 9.8 0.4 14.7 0.4 92.8 0 203.7-46.3 238.2-137.5 18.5-48.9 14.4-105.8-11.6-160.3-33.6-70.5-99.5-126.2-180.7-152.9-2.9-1-5.3-3.2-6.3-6.1-1-2.9-0.7-6.1 1-8.7 0.2-0.3 7.9-12.5 13.2-25.9 5.9-14.7 5.8-23.4 3.2-25.1-4.6-3.2-11.4-3.4-18.7-0.5-9.9 3.9-22.8 14.8-26.7 32.8-0.9 4.1-4.2 7.1-8.3 7.8-4.1 0.6-8.2-1.4-10.2-5-0.5-1-10.7-18.5-25.2-18.5z" fill="#603434" p-id="3387"></path><path d="M564.4 333.6s-94.3 49.2-138.1 196.1" fill="#FEFFE3" p-id="3388"></path><path d="M426.3 539.7c-0.9 0-1.9-0.1-2.9-0.4-5.3-1.6-8.3-7.1-6.7-12.4 23.2-77.8 60.5-128.4 87.8-157.2 29.9-31.5 54.3-44.4 55.3-44.9 4.9-2.6 10.9-0.6 13.5 4.2 2.5 4.9 0.7 10.9-4.2 13.5-0.2 0.1-23 12.3-50.7 41.7-25.5 27.1-60.6 74.9-82.5 148.4-1.4 4.3-5.3 7.1-9.6 7.1z" fill="#603434" p-id="3389"></path><path d="M593.4 352.8s-29.6 86.1-33.2 157.7" fill="#FEFFE3" p-id="3390"></path><path d="M560.2 520.6h-0.5c-5.5-0.3-9.8-5-9.5-10.5 3.6-72.3 32.5-156.9 33.7-160.5 1.8-5.2 7.5-8 12.7-6.2 5.2 1.8 8 7.5 6.2 12.7-0.3 0.8-29.2 85.6-32.6 155-0.3 5.3-4.7 9.5-10 9.5z" fill="#603434" p-id="3391"></path><path d="M856.5 627.6c26.5-69.8 8.2-155-46.8-223.3-127.2 87.8-306.4 53.1-422 15.2-20.7 30-60.1 99.2-40.1 178.1 26.6 105 143.6 167.9 246.1 173.6 101.1 5.5 224.6-42.9 262.8-143.6z" fill="#F7DD9C" p-id="3392"></path><path d="M609.1 781.6c-5.4 0-10.8-0.1-16.1-0.4-54.1-3-111.1-21.6-156.4-51.1-51.6-33.6-85.8-78.6-98.8-130-10.4-41.2-6.9-84.4 10.6-128.5 9.6-24.3 23-47.8 39.8-69.7 42.4-55.5 102.1-95.1 165.5-110.2-4.1-9.7-8-23-4.7-33.4 1.9-6 6-10.5 11.7-13.1 19.1-8.5 35.6-0.4 46.7 10.1 7.2-13.4 18.7-24 32.3-29.4 13.6-5.4 27.2-4.4 37.4 2.7 12.3 8.5 13.6 25.1 3.9 49.2-2.7 6.8-5.9 13.1-8.6 18.2 40 14.7 75.9 35.7 106.9 62.7 31.4 27.4 57 60.8 74.1 96.6 13.9 29.1 22.1 59.1 24.3 89.1 2.3 30.7-1.7 59.9-12 87-18.6 49.2-57.6 89.6-112.7 117-43.2 21.3-94.8 33.2-143.9 33.2z m-32.4-519.9c-2.5 0-5.1 0.5-7.8 1.7-0.5 0.2-0.6 0.3-0.8 0.9-1.9 5.8 4 20.8 9 29.3 1.6 2.8 1.8 6.3 0.5 9.2-1.4 3-4.1 5.1-7.3 5.7-63.5 11.8-124 50.2-166.3 105.5-20.9 27.4-67.4 99.9-46.9 181.2 25.6 100.8 141.2 160.8 237 166 4.8 0.3 9.8 0.4 14.7 0.4 92.8 0 203.7-46.3 238.2-137.5 18.5-48.9 14.4-105.8-11.6-160.3-33.6-70.5-99.5-126.2-180.7-152.9-2.9-1-5.3-3.2-6.3-6.1-1-2.9-0.7-6.1 1-8.7 0.2-0.3 7.9-12.5 13.2-25.9 5.9-14.7 5.8-23.4 3.2-25.1-4.6-3.2-11.4-3.4-18.7-0.5-9.9 3.9-22.8 14.8-26.7 32.8-0.9 4.1-4.2 7.1-8.3 7.8-4.1 0.6-8.2-1.4-10.2-5-0.5-1-10.7-18.5-25.2-18.5z" fill="#603434" p-id="3393"></path><path d="M773.1 492.6c-4.9 0-9.2-3.6-9.9-8.6-11.5-83.2-113.6-153-114.6-153.7a9.99 9.99 0 0 1-2.7-13.9c3.1-4.6 9.3-5.8 13.9-2.7 1.1 0.8 27.9 18.9 56.4 48.4 38.9 40.1 61.4 80.2 66.8 119 0.8 5.5-3.1 10.5-8.5 11.3-0.5 0.1-0.9 0.2-1.4 0.2z" fill="#603434" p-id="3394"></path><path d="M704.2 573.4c-5.5 0-10-4.4-10-9.9-1.1-171-77.1-231.9-77.9-232.5-4.4-3.4-5.2-9.7-1.8-14 3.4-4.4 9.7-5.2 14-1.8 0.9 0.7 22.1 17.4 43.1 56.7 19 35.5 41.9 97.6 42.5 191.5 0.2 5.5-4.3 10-9.9 10 0.1 0 0.1 0 0 0z" fill="#603434" p-id="3395"></path><path d="M381 280.4s-35-57.3-14.6-71.9c20.4-14.6 57.2 5.9 65 42.9 0 0 19.8-36.5 48.8-23 19 8.8-3.8 49.4-3.8 49.4 72 14.1 138.9 60.6 183.9 121.9 15.3 20.8 76.9 108.6 52.1 210.9-28.2 116.5-153 186-262.2 191.8-108 5.8-239.8-48.4-280.6-160.4-46.7-128 36.3-302.2 211.4-361.6z" fill="#FEFFE3" p-id="3396"></path><path d="M434.6 812.9c-52.6 0-108.1-13.4-154.6-37.6-58.6-30.5-100-75.4-119.9-129.8-11.2-30.6-15.4-63.8-12.6-98.6 2.7-34.1 12.1-68 27.8-100.7 18.5-38.5 45.6-74.3 78.6-103.7 32.7-29.1 70.5-51.8 112.6-67.5-3-5.8-6.7-13.3-9.8-21.4-10.1-26.2-8.8-44.1 3.8-53.1 10.4-7.5 24.5-8.7 38.5-3.2 15 5.8 27.8 18.2 35.6 33.6 11.7-11.7 29.4-20.9 49.8-11.4 5.8 2.7 9.9 7.4 12 13.7 3.8 11.7-0.9 27.1-5.4 37.8 68 16.8 132 61.1 177.4 123.1 17.8 24.4 32.1 50.3 42.3 77.3 18.6 48.8 22.4 96.5 11.4 141.9-13.7 56.7-50 106.3-104.9 143.3-48.3 32.6-109 53-166.6 56.1-5.2 0-10.6 0.2-16 0.2z m-52.9-599.1c-3.2 0-6.6 0.7-9.6 2.9-3.2 2.3-3.5 12.4 3.2 29.7 5.8 15.1 14.1 28.7 14.2 28.8 1.6 2.6 1.9 5.8 0.9 8.6-1 2.9-3.3 5.1-6.2 6.1-84.8 28.8-154.3 88.9-190.8 164.9-29.4 61.3-34.7 128.3-14.4 183.8 37.3 102.2 156.6 154.3 256 154.3 4.9 0 9.8-0.1 14.7-0.4 102.3-5.5 225.7-71.9 253-184.2 22-90.8-27.9-171.9-50.4-202.6-45.3-61.7-110-104.8-177.8-118-3.1-0.6-5.8-2.7-7.2-5.6-1.3-2.9-1.2-6.3 0.4-9.1 5.2-9.4 11.9-26.6 9.6-33.8-0.3-1-0.7-1.3-1.4-1.6-20.3-9.4-35.7 18.4-35.8 18.7-2 3.7-6.1 5.7-10.2 5.1-4.1-0.6-7.5-3.7-8.3-7.8-4.4-21-18.8-33.4-29.8-37.6-2.5-1.1-6.2-2.2-10.1-2.2z" fill="#603434" p-id="3397"></path><path d="M384.9 303.4s-101.8 96.3-111.8 217.7" fill="#FEFFE3" p-id="3398"></path><path d="M273.2 531.2h-0.8c-5.5-0.5-9.6-5.3-9.2-10.8 5.3-64.9 36.3-122.4 61.3-159.2 27-39.7 52.5-64 53.6-65 4-3.8 10.3-3.6 14.1 0.4 3.8 4 3.6 10.3-0.4 14.1-0.3 0.2-25.2 24.1-51 62.1-23.6 34.7-52.7 88.8-57.7 149.2-0.4 5.2-4.8 9.2-9.9 9.2z" fill="#603434" p-id="3399"></path><path d="M418.7 304.7s-53.8 68.4-50.2 269.3" fill="#FEFFE3" p-id="3400"></path><path d="M368.5 584c-5.4 0-9.9-4.4-10-9.8-3.6-202.1 50-272.7 52.3-275.7 3.4-4.3 9.7-5.1 14-1.7 4.3 3.4 5.1 9.7 1.7 14-0.2 0.3-13 17.3-25.3 57.9-11.4 37.7-24.6 103.8-22.8 205.1 0.1 5.5-4.3 10.1-9.8 10.2h-0.1z" fill="#603434" p-id="3401"></path><path d="M463.1 298.9s100.7 55 147.6 218.3" fill="#FEFFE3" p-id="3402"></path><path d="M610.7 527.2c-4.3 0-8.3-2.9-9.6-7.2-45.2-157.5-141.8-211.8-142.8-212.3-4.8-2.6-6.6-8.7-4-13.6 2.6-4.8 8.7-6.6 13.6-4 1.1 0.6 27 14.9 58.8 49.9 29 32 68.8 88.1 93.6 174.4 1.5 5.3-1.5 10.8-6.9 12.4-0.9 0.3-1.8 0.4-2.7 0.4z" fill="#603434" p-id="3403"></path><path d="M449.8 337.8s31.7 95.7 35.6 175.3" fill="#FEFFE3" p-id="3404"></path><path d="M485.4 523.2c-5.3 0-9.7-4.2-10-9.5-3.8-77.3-34.8-171.7-35.1-172.7-1.7-5.2 1.1-10.9 6.4-12.6 5.2-1.7 10.9 1.1 12.6 6.4 1.3 4 32.1 97.9 36.1 178 0.3 5.5-4 10.2-9.5 10.5-0.2-0.2-0.4-0.1-0.5-0.1z" fill="#603434" p-id="3405"></path><path d="M450.1 806.5c109.3-5.8 234-75.3 262.2-191.8 18.4-75.9-10.8-143.8-33.3-182.3-24.9 86.7-142.2 292-476.5 272 59 47.2 176.9 105.8 247.6 102.1z" fill="#F7DD9C" p-id="3406"></path><path d="M434.6 812.9c-52.6 0-108.1-13.4-154.6-37.6-58.6-30.5-100-75.4-119.9-129.8-11.2-30.6-15.4-63.8-12.6-98.6 2.7-34.1 12.1-68 27.8-100.7 18.5-38.5 45.6-74.3 78.6-103.7 32.7-29.1 70.5-51.8 112.6-67.5-3-5.8-6.7-13.3-9.8-21.4-10.1-26.2-8.8-44.1 3.8-53.1 10.4-7.5 24.5-8.7 38.5-3.2 15 5.8 27.8 18.2 35.6 33.6 11.7-11.7 29.4-20.9 49.8-11.4 5.8 2.7 9.9 7.4 12 13.7 3.8 11.7-0.9 27.1-5.4 37.8 68 16.8 132 61.1 177.4 123.1 17.8 24.4 32.1 50.3 42.3 77.3 18.6 48.8 22.4 96.5 11.4 141.9-13.7 56.7-50 106.3-104.9 143.3-48.3 32.6-109 53-166.6 56.1-5.2 0-10.6 0.2-16 0.2z m-52.9-599.1c-3.2 0-6.6 0.7-9.6 2.9-3.2 2.3-3.5 12.4 3.2 29.7 5.8 15.1 14.1 28.7 14.2 28.8 1.6 2.6 1.9 5.8 0.9 8.6-1 2.9-3.3 5.1-6.2 6.1-84.8 28.8-154.3 88.9-190.8 164.9-29.4 61.3-34.7 128.3-14.4 183.8 37.3 102.2 156.6 154.3 256 154.3 4.9 0 9.8-0.1 14.7-0.4 102.3-5.5 225.7-71.9 253-184.2 22-90.8-27.9-171.9-50.4-202.6-45.3-61.7-110-104.8-177.8-118-3.1-0.6-5.8-2.7-7.2-5.6-1.3-2.9-1.2-6.3 0.4-9.1 5.2-9.4 11.9-26.6 9.6-33.8-0.3-1-0.7-1.3-1.4-1.6-20.3-9.4-35.7 18.4-35.8 18.7-2 3.7-6.1 5.7-10.2 5.1-4.1-0.6-7.5-3.7-8.3-7.8-4.4-21-18.8-33.4-29.8-37.6-2.5-1.1-6.2-2.2-10.1-2.2z" fill="#603434" p-id="3407"></path></svg>